<svg id="_0187_marketing_3" xmlns="http://www.w3.org/2000/svg" xmlns:xlink="http://www.w3.org/1999/xlink" viewBox="0 0 500 500" data-imageid="marketing-3-56" imageName="Marketing 3" class="illustrations_image" style="width: 166px;"><defs><style>.cls-1_marketing-3-56{fill:none;}.cls-1_marketing-3-56,.cls-2_marketing-3-56,.cls-3_marketing-3-56,.cls-4_marketing-3-56,.cls-5_marketing-3-56,.cls-6_marketing-3-56,.cls-7_marketing-3-56,.cls-8_marketing-3-56,.cls-9_marketing-3-56,.cls-10_marketing-3-56,.cls-11_marketing-3-56,.cls-12_marketing-3-56,.cls-13_marketing-3-56,.cls-14_marketing-3-56,.cls-15_marketing-3-56,.cls-16_marketing-3-56,.cls-17_marketing-3-56,.cls-18_marketing-3-56,.cls-19_marketing-3-56,.cls-20_marketing-3-56,.cls-21_marketing-3-56{stroke-width:0px;}.cls-2_marketing-3-56{fill:url(#linear-gradient);}.cls-3_marketing-3-56{fill:url(#linear-gradient-11-marketing-3-56);}.cls-4_marketing-3-56{fill:url(#linear-gradient-12-marketing-3-56);}.cls-5_marketing-3-56{fill:url(#linear-gradient-13-marketing-3-56);}.cls-6_marketing-3-56{fill:url(#linear-gradient-10-marketing-3-56);}.cls-7_marketing-3-56{fill:url(#linear-gradient-15-marketing-3-56);}.cls-8_marketing-3-56{fill:url(#linear-gradient-14-marketing-3-56);}.cls-9_marketing-3-56{fill:url(#linear-gradient-4-marketing-3-56);}.cls-10_marketing-3-56{fill:url(#linear-gradient-2-marketing-3-56);}.cls-11_marketing-3-56{fill:url(#linear-gradient-3-marketing-3-56);}.cls-12_marketing-3-56{fill:url(#linear-gradient-8-marketing-3-56);}.cls-13_marketing-3-56{fill:url(#linear-gradient-9-marketing-3-56);}.cls-14_marketing-3-56{fill:url(#linear-gradient-7-marketing-3-56);}.cls-15_marketing-3-56{fill:url(#linear-gradient-5-marketing-3-56);}.cls-16_marketing-3-56{fill:url(#linear-gradient-6-marketing-3-56);}.cls-17_marketing-3-56{isolation:isolate;opacity:.24;}.cls-17_marketing-3-56,.cls-21_marketing-3-56{fill:#68e1fd;}.cls-18_marketing-3-56{fill:#231f20;}.cls-19_marketing-3-56{fill:#fff;}.cls-20_marketing-3-56{fill:#ffaa71;}</style><linearGradient id="linear-gradient-marketing-3-56" x1="877.99" y1="2030.93" x2="851.35" y2="1978.5" gradientTransform="translate(-474.36 2263.68) scale(1 -1)" gradientUnits="userSpaceOnUse"><stop offset="0" stop-color="#fff" stop-opacity="0"/><stop offset=".95" stop-color="#fff"/></linearGradient><linearGradient id="linear-gradient-2-marketing-3-56" x1="-2183.74" y1="1999.79" x2="-2204.28" y2="1959.36" gradientTransform="translate(-1986.31 2263.68) rotate(-180) scale(.94 1)" xlink:href="#linear-gradient-marketing-3-56"/><linearGradient id="linear-gradient-3-marketing-3-56" x1="638.99" y1="2120.12" x2="928.91" y2="2085.17" gradientTransform="translate(-474.36 2263.68) scale(1 -1)" gradientUnits="userSpaceOnUse"><stop offset="0" stop-color="#231f20" stop-opacity="0"/><stop offset="1" stop-color="#231f20"/></linearGradient><linearGradient id="linear-gradient-4-marketing-3-56" x1="819.6" y1="2114.54" x2="610.47" y2="2101.36" xlink:href="#linear-gradient-3-marketing-3-56"/><linearGradient id="linear-gradient-5-marketing-3-56" x1="727.66" y1="2160.15" x2="669.36" y2="1664.65" gradientTransform="translate(-474.36 2263.68) scale(1 -1)" gradientUnits="userSpaceOnUse"><stop offset=".12" stop-color="#010101" stop-opacity="0"/><stop offset=".95" stop-color="#010101"/></linearGradient><linearGradient id="linear-gradient-6-marketing-3-56" x1="729.66" y1="1986.82" x2="726.22" y2="1679.98" xlink:href="#linear-gradient-3-marketing-3-56"/><linearGradient id="linear-gradient-7-marketing-3-56" x1="733.54" y1="1986.74" x2="730.1" y2="1680.31" xlink:href="#linear-gradient-3-marketing-3-56"/><linearGradient id="linear-gradient-8-marketing-3-56" x1="763.99" y1="2013.54" x2="769.43" y2="1991.2" gradientTransform="translate(-471 2272.74) scale(1 -1)" xlink:href="#linear-gradient-3-marketing-3-56"/><linearGradient id="linear-gradient-9-marketing-3-56" x1="737.5" y1="1974.54" x2="702.69" y2="1940.59" xlink:href="#linear-gradient-3-marketing-3-56"/><linearGradient id="linear-gradient-10-marketing-3-56" x1="2735.68" y1="1998.61" x2="2723.71" y2="1994.97" gradientTransform="translate(-2370.96 1638.95) rotate(14.48) scale(.82 -1)" xlink:href="#linear-gradient-3-marketing-3-56"/><linearGradient id="linear-gradient-11-marketing-3-56" x1="2711.86" y1="2007.37" x2="2718.78" y2="2008.57" gradientTransform="translate(-2369.57 1645.28) rotate(14.71) scale(.83 -1) skewX(-.31)" xlink:href="#linear-gradient-3-marketing-3-56"/><linearGradient id="linear-gradient-12-marketing-3-56" x1="2732.99" y1="1997.82" x2="2728.13" y2="1996.34" gradientTransform="translate(-1942.4 2263.68) scale(.82 -1)" xlink:href="#linear-gradient-3-marketing-3-56"/><linearGradient id="linear-gradient-13-marketing-3-56" x1="2713.7" y1="1997.64" x2="2721.96" y2="1986.47" gradientTransform="translate(-1942.4 2263.68) scale(.82 -1)" xlink:href="#linear-gradient-3-marketing-3-56"/><linearGradient id="linear-gradient-14-marketing-3-56" x1="2727.65" y1="1998.42" x2="2745.17" y2="1997.89" gradientTransform="translate(-1942.4 2263.68) scale(.82 -1)" xlink:href="#linear-gradient-3-marketing-3-56"/><linearGradient id="linear-gradient-15-marketing-3-56" x1="757.7" y1="1995.67" x2="763.07" y2="1995.67" gradientTransform="translate(-471 2272.74) scale(1 -1)" xlink:href="#linear-gradient-3-marketing-3-56"/></defs><path id="background_marketing-3-56" class="cls-17_marketing-3-56 targetColor" d="M250.69,41.14c-40.89,2.8-80.22,23.54-105.61,55.71-22.95,29.08-34.24,65.83-55.87,95.87-21.74,30.22-53.61,53.26-69.42,87-23.76,50.64.3,118.28,50.7,142.55,27.98,13.47,60.16,14.22,91.22,14.7l189.4,2.93c22.34.34,45.2.61,66.37-6.53,41.8-14.11,71.07-61.56,59.99-104.26-8.75-33.73-38.79-59.89-43.01-94.45-2.38-19.52,3.93-39.05,4.23-58.72,1.18-80.31-118.44-139.54-187.99-134.79Z" style="fill: rgb(136, 117, 255);"/><g id="cloud_marketing-3-56"><path class="cls-2_marketing-3-56" d="M322.37,230.4c-6.88,9.41-5.79,23.83,2.5,32.06,11.01,10.97,29.02,9.17,44.38,6.6,1.29,12.76,13.94,21.95,26.64,23.7,12.7,1.75,25.42-2.19,37.64-6.07,1.29,6.88,7.91,11.42,14.79,10.13,3.81-.71,7.08-3.13,8.89-6.56-7.94-9.9-15.95-19.9-21.59-31.26-5.64-11.37-8.78-24.39-6.39-36.85.86-4.5,1.83-10.42-2.22-12.56-1.28-.57-2.68-.83-4.08-.76-10.61-.1-21.01,2.94-29.9,8.74-2.66,1.74-5.36,3.8-8.53,3.98-2.55.14-4.97-.95-7.44-1.56-9.1-2.24-18.37,2.37-27.54,1.47-10.41-1.01-20.32-.34-27.14,8.94Z"/><path class="cls-10_marketing-3-56" d="M124.6,261.13c4.99,7.26,4.18,18.37-1.8,24.72-7.97,8.46-20.94,7.07-32.02,5.08-.92,9.84-10.05,16.93-19.21,18.28-9.16,1.35-18.34-1.69-27.16-4.68-.69,3.95-3.9,7.26-7.62,7.86-3.92.48-7.71-1.58-9.44-5.14,5.73-7.63,11.51-15.34,15.58-24.09,4.07-8.76,6.33-18.8,4.61-28.41-.62-3.44-1.31-8.03,1.6-9.69.92-.44,1.93-.64,2.95-.59,7.72-.05,15.26,2.31,21.57,6.76,1.92,1.34,3.87,2.93,6.15,3.06,1.83.11,3.58-.73,5.37-1.2,6.56-1.73,13.25,1.82,19.88,1.14,7.49-.78,14.64-.27,19.54,6.89Z"/></g><g id="paper_marketing-3-56"><path class="cls-19_marketing-3-56" d="M353.63,294.86c2.42,6.51,4.43,13.16,6.01,19.92-2.35.3-4.74.06-7.1.19-7.7.43-14.57,4.73-21.05,8.9,3.9-2.51-9.22-15.01-2.47-19.61,2.97-2.07,8.65-2.49,12.12-3.78,4.28-1.61,8.45-3.48,12.49-5.62Z"/><path class="cls-19_marketing-3-56" d="M146.25,329.97c-1.03-.48-2.13-.8-3.25-.95-1.4-.03-2.8.17-4.13.6-8.76,2.18-17.71,3.06-26.66,3.94l-27.93,2.75c11.6,8.68,23,17.62,34.21,26.81,13.11-8.67,28.28-13.72,43.98-14.64,2.19-.12,4.44-.19,6.44-1.07,8.21-3.61-1.45-7.47-5.16-9.4-5.7-2.96-11.53-5.65-17.49-8.05Z"/><path class="cls-19_marketing-3-56" d="M361.9,373.84c8.1-3.7,16.87-5.62,25.32-8.45-6.51,3.13-13.08,6.32-18.41,11.21-7.5,6.93-12.07,16.98-20.77,22.35-6.69,4.06-14.87,4.8-22.18,2.03.23.08,7.24-10.33,7.97-11.26,3.57-4.54,3.7-3.9,8.34-4.89,4.28-.92,4.13-.32,8.12-3.52,3.54-2.97,7.44-5.48,11.61-7.46Z"/><path class="cls-19_marketing-3-56" d="M151.08,283.67l11.1,11.46c.38.45.85.83,1.38,1.09.44.15.91.23,1.38.23,7.06.41,14.11,1.1,21.11,2.07-1.93-3.99-9.55-7.98-13.08-10.52-2.75-2-5.89-2.48-9.36-3.08-2.14-.39-11.28.03-12.52-1.25Z"/><path class="cls-19_marketing-3-56" d="M429.79,335.54c-7.38-.92-14.81-1.34-22.25-1.25.76,4.26,1.63,8.5,2.6,12.72,6.69-1.86,13.86-.26,20.38,2.15,6.51,2.41,12.76,5.63,19.54,7.17.52.2,1.11.15,1.59-.13.75-.61.19-1.8-.39-2.57-6.41-8.38-10.26-16.77-21.46-18.08Z"/></g><g id="baloon_marketing-3-56"><path class="cls-21_marketing-3-56 targetColor" d="M284.32,299.89h-56.6l-26.12-65.45,104.9-2.69-22.19,68.14ZM229.81,296.84h52.32l20.18-61.96-96.2,2.47,23.7,59.49Z" style="fill: rgb(136, 117, 255);"/><path class="cls-21_marketing-3-56 targetColor" d="M176.4,74.96c-32.35,25.47-39.95,71.4-17.53,105.94,3.68,5.67,8.07,10.86,11.46,16.69,6.52,11.21,9.64,25.04,19.76,33.09,7.9,6.26,18.5,7.67,28.56,8.55,1.65.26,3.33.17,4.94-.26,3.55-1.22,5.14-5.34,5.64-9.05,1.38-10.23-1.97-20.41-4.65-30.38-8.87-33.12-10.46-67.76-4.68-101.56,1.76-10.21,7.22-28.36-5.94-33.04-12.56-4.45-27.85,2.39-37.55,10.03Z" style="fill: rgb(136, 117, 255);"/><path class="cls-11_marketing-3-56" d="M183.85,73.81c-32.35,25.47-39.95,71.4-17.53,105.94,3.68,5.66,8.07,10.85,11.46,16.69,6.52,11.2,9.64,25.03,19.76,33.09,7.9,6.26,18.5,7.67,28.56,8.55,1.65.26,3.33.17,4.94-.27,3.55-1.22,5.13-5.34,5.64-9.05,1.38-10.22-1.97-20.41-4.65-30.38-8.87-33.13-10.47-67.79-4.68-101.59,1.76-10.2,7.22-28.36-5.94-33.01-12.56-4.44-27.85,2.39-37.55,10.04Z"/><path class="cls-21_marketing-3-56 targetColor" d="M329.13,73.67c32.35,25.47,39.95,71.4,17.53,105.94-3.68,5.67-8.07,10.85-11.46,16.69-6.52,11.2-9.64,25.04-19.76,33.09-7.9,6.26-18.51,7.67-28.56,8.55-1.65.26-3.33.17-4.94-.26-3.54-1.23-5.13-5.34-5.63-9.05-1.38-10.23,1.97-20.42,4.65-30.39,8.87-33.13,10.46-67.79,4.67-101.59-1.76-10.2-7.21-28.36,5.95-33.01,12.55-4.44,27.85,2.4,37.55,10.04Z" style="fill: rgb(136, 117, 255);"/><path class="cls-9_marketing-3-56" d="M325.26,76.25c32.35,25.47,39.95,71.4,17.53,105.94-3.68,5.66-8.07,10.85-11.46,16.69-6.52,11.2-9.64,25.03-19.76,33.09-7.9,6.26-18.5,7.67-28.56,8.55-1.65.26-3.33.17-4.94-.27-3.55-1.22-5.13-5.34-5.64-9.05-1.38-10.22,1.97-20.41,4.65-30.38,8.87-33.13,10.47-67.79,4.68-101.59-1.76-10.21-7.22-28.36,5.94-33.04,12.56-4.41,27.85,2.42,37.55,10.07Z"/><path class="cls-21_marketing-3-56 targetColor" d="M175.48,105.41c2.96-12.33,8.41-24.34,17.38-33.3,13.03-13.03,31.93-18.27,50.22-20.47,17.68-2.13,36.36-1.73,52.27,6.27,20.19,10.15,33.24,31.86,35.76,54.32,2.52,22.46-4.6,45.31-16.81,64.31-8.26,12.87-19.06,24.71-22.81,39.54-2.16,8.51-2.15,18.23-8.1,24.68-3.41,3.7-8.26,5.67-13.04,7.26-16.07,5.34-37.47,7.5-51.15-4.94-8.71-7.92-9.46-20.16-13.69-30.53-7.03-17.21-20.17-30.88-26.57-48.48-6.83-18.8-8.03-39.18-3.45-58.65Z" style="fill: rgb(136, 117, 255);"/><path class="cls-15_marketing-3-56" d="M184.98,105.41c2.53-12.33,7.21-24.34,14.91-33.3,11.19-13.03,27.41-18.27,43.12-20.47,15.18-2.13,31.21-1.73,44.87,6.27,17.33,10.15,28.52,31.86,30.69,54.32s-3.95,45.31-14.46,64.31c-7.08,12.87-16.36,24.69-19.57,39.54-1.85,8.51-1.85,18.23-6.95,24.68-2.92,3.7-7.1,5.67-11.18,7.28-13.77,5.34-32.16,7.5-43.91-4.94-7.47-7.92-8.12-20.16-11.75-30.53-6.04-17.22-17.31-30.9-22.82-48.51-5.87-18.99-6.89-39.16-2.95-58.65Z"/><rect class="cls-21_marketing-3-56 targetColor" x="215.58" y="297.36" width="78.21" height="67.9" rx="8.5" ry="8.5" style="fill: rgb(136, 117, 255);"/><path class="cls-16_marketing-3-56" d="M293.78,308.63v48.29c0,4.59-3.71,8.32-8.3,8.33h-61.57c-4.59,0-8.32-3.71-8.33-8.3,0,0,0-.02,0-.03v-48.29c.03-4.58,3.75-8.27,8.33-8.26h61.57c4.57,0,8.28,3.69,8.3,8.26Z"/><path class="cls-14_marketing-3-56" d="M293.78,308.63v48.29c0,4.59-3.71,8.32-8.3,8.33h-53.85c-4.59,0-8.31-3.74-8.3-8.33h0v-48.29c.03-4.57,3.73-8.26,8.3-8.26h53.85c4.57,0,8.28,3.69,8.3,8.26Z"/><rect class="cls-17_marketing-3-56 targetColor" x="216.01" y="311.26" width="76.92" height="11.17" style="fill: rgb(136, 117, 255);"/><rect class="cls-17_marketing-3-56 targetColor" x="216.01" y="326.73" width="76.92" height="11.17" style="fill: rgb(136, 117, 255);"/><rect class="cls-17_marketing-3-56 targetColor" x="216.01" y="342.2" width="76.92" height="11.17" style="fill: rgb(136, 117, 255);"/></g><g id="character_marketing-3-56"><polygon class="cls-12_marketing-3-56" points="298.12 257.58 294.15 259.69 290.42 271.37 293.93 269 298.12 257.58"/><path class="cls-21_marketing-3-56 targetColor" d="M267.7,268.82c-2.57-.69-5.31-1.22-7.88-.55-1.96.61-3.76,1.62-5.31,2.97-7.25,5.74-12.64,13.49-15.51,22.28-.37,1.16-.65,2.57.17,3.5.62.69,1.65.89,2.6,1.02,7.58,1.09,15.18,2.01,22.8,2.75.91.15,1.85.12,2.75-.08.89-.32,1.7-.85,2.34-1.55,3.66-3.6,5.23-8.65,6.68-13.49.73-2.02,1.13-4.14,1.19-6.28-.1-5.96-4.3-9.05-9.83-10.57Z" style="fill: rgb(136, 117, 255);"/><path class="cls-13_marketing-3-56" d="M256.26,282.05l2.07,4.93c.4,1.18,1.04,2.27,1.88,3.19,1.23,1.18,3,1.57,4.56,2.27,2.02.91,3.73,2.37,4.95,4.21-2.99.14-5.98.02-8.95-.36-.92-.09-1.83-.32-2.68-.69-1.66-.78-1.19-2.81-2.79-3.71-1.14-.65-4.09-.21-5.28-.69.66-3.48,3.52-6.96,6.24-9.16Z"/><path class="cls-19_marketing-3-56" d="M276.11,287.51c2.95,3.15,5.44,6.68,7.42,10.51.21.31.3.69.24,1.07-.15.36-.43.64-.78.8-5.05,3.09-10.13,6.11-15.24,9.05-.7.5-1.55.77-2.41.77-.52-.09-1.02-.28-1.46-.57-3.45-1.94-6.58-4.4-9.29-7.28-.35-.29-.56-.71-.57-1.16.12-.41.39-.75.76-.96,3.32-2.59,6.76-5,10.33-7.24,2.95-1.76,7.41-4.98,11-4.98Z"/><path class="cls-18_marketing-3-56" d="M270.31,252.04c-3.83,1.34-7.02,4.45-11.01,4.95-.73.1-1.58.15-2,.75s-.15,1.57.34,2.2c.57.56,1.07,1.18,1.51,1.84.24.49.31,1.05.59,1.53.44.61,1.04,1.09,1.74,1.38,3.38,1.73,6.97,3.52,10.77,3.28,3.43-.24,6.52-2.15,8.26-5.11,1.34-2.35,2.07-7.15.32-9.56-2.06-2.81-7.7-2.24-10.5-1.27Z"/><path class="cls-20_marketing-3-56" d="M278.53,269.33c-.33,1.14-1.02,2.14-1.96,2.86-.76.43-1.64.6-2.51.5-.86-.11-1.71-.29-2.53-.54-.38-.14-.79-.16-1.18-.04-.31.15-.56.39-.73.69-.33.51-.58,1.05-.76,1.62-.08.41-.25.8-.5,1.14-.51.42-1.16.61-1.81.54-.35.03-.7-.03-1.02-.17-.54-.42-.82-1.09-.74-1.77-.04-.98,0-1.96.06-2.94-.02-1.77.28-3.52.87-5.18.4-.87.89-1.69,1.46-2.45,1.56-2.2,3.34-4.42,5.85-5.4,1.53-.5,3.12-.75,4.73-.75.59-.06,1.18-.03,1.76.09,2.32.63,1.24,3.56.92,5.24-.43,2.24-1.07,4.44-1.89,6.57Z"/><path class="cls-18_marketing-3-56" d="M269.17,264.05c0,.55-.09,1.27-.62,1.41-.18-.28-.32-.6-.39-.93-.12-.31-.36-.63-.69-.65-.18.01-.36.07-.51.18-.44.23-.77.62-.91,1.09-.14.69.38,1.38.19,2.07-.07.25-.3.5-.55.42-.14-.07-.26-.18-.32-.32-.49-.84-.92-1.72-1.29-2.63-.15-.33-.25-.67-.3-1.03-.02-.41.05-.82.2-1.2.48-1.22,1.3-2.29,2.35-3.08,1.05-.79,2.16-1.48,3.34-2.07.76-.41,2.44-1.38,3.31-.69s-.52,1.52-.98,1.89c-1.69,1.36-2.71,3.37-2.83,5.53Z"/><path class="cls-21_marketing-3-56 targetColor" d="M279.86,278.1l6.88,9.64c.83-.31,1.4-1.07,1.48-1.95.06-.86,0-1.73-.21-2.57-.21-1.29-.29-2.59-.25-3.89-.06-.95.21-1.89.77-2.66,1.12-1.31,3.39-.92,4.56.35s1.51,3.06,1.76,4.77c.49,3.16.68,6.35.57,9.55-.08,1.57-.3,3.26-1.38,4.39-.84.77-1.9,1.26-3.03,1.43-5.99,1.2-12.35-1.94-15.88-6.93-2.95-4.3-4.3-9.51-3.81-14.7.74-6.94,6.57-.12,8.52,2.6Z" style="fill: rgb(136, 117, 255);"/><path class="cls-1_marketing-3-56" d="M243.75,290.32c-.39,1.29-.69,2.81.12,3.9s2.28,1.27,3.6,1.38l3.74.29c2.24.17,4.82.21,6.3-1.49.52-.69.91-1.47,1.16-2.3.26-.52.33-1.12.19-1.69-.21-.5-.69-.79-1.09-1.16-1.54-1.47-1.23-4.08-.17-5.92s2.72-3.3,3.77-5.15c.72-1.26,1.13-2.68,1.21-4.13.04-.39,0-.78-.15-1.14-.25-.42-.62-.76-1.07-.95-9.49-4.81-15.81,12.32-17.6,18.35Z"/><path class="cls-20_marketing-3-56" d="M262.71,292.59c.47,0,.94.09,1.38.28.95.48,1.27,1.65,1.42,2.71.12.59.11,1.19-.05,1.77-.26.64-.75,1.17-1.38,1.47-1.38.73-3.02.6-4.55.42-.98-.11-2.18-.41-2.42-1.38-.12-.52,0-1.23-.48-1.45-.13-.05-.28-.08-.42-.07-.58.04-1.15.03-1.73-.04-.58-.08-1.09-.43-1.38-.94-.18-.57-.14-1.19.12-1.73.6-1.64,1.58-1.88,3.1-1.54,2.05.46,4.31.37,6.39.52Z"/><path class="cls-21_marketing-3-56 targetColor" d="M281.96,268.01c.36-.66.98-1.14,1.71-1.31,3.37-.81,13.93-3.72,14.55-8.76.19-.84.99-1.41,1.85-1.3,1.65,0,4.28,15.56,3.84,15.9s-1.95-.39-2.75-1.11c-1.6-1.47-3.86-1.97-5.93-1.31-1.34.41-3.77.98-6.04,1.47-1.63.35-3.18.69-4.18.87-.85.17-1.72-.13-2.27-.79-.8-.89-1.17-2.09-.99-3.28,0,0,.1-.14.22-.37Z" style="fill: rgb(136, 117, 255);"/><ellipse class="cls-21_marketing-3-56 targetColor" cx="302.24" cy="264.59" rx="2.77" ry="8.15" transform="translate(-56.56 83.98) rotate(-14.48)" style="fill: rgb(136, 117, 255);"/><ellipse class="cls-6_marketing-3-56" cx="302.24" cy="264.59" rx="2.77" ry="8.15" transform="translate(-56.56 83.98) rotate(-14.48)"/><ellipse class="cls-3_marketing-3-56" cx="302.45" cy="265.1" rx=".83" ry="2.45" transform="translate(-56.59 83.87) rotate(-14.45)"/><path class="cls-4_marketing-3-56" d="M301.32,262.32l-2.11.28s.81,5.07,1.7,5.51l1.44-1.06-1.03-4.72Z"/><path class="cls-5_marketing-3-56" d="M286.73,268.95s.57,2.57,2.48,2.64l-4.72,1.07s-1.69-.1-2.02-.78-2.01-3.03.36-4.86l3.8-1.16c-.24,1.02-.21,2.09.1,3.09Z"/><path class="cls-8_marketing-3-56" d="M297.93,259.75c-.2,4.02.84,8,2.98,11.41-1.35-.97-3.01-1.41-4.67-1.26,0,0-1.38-5.09-.78-6.51.69-1.3,1.52-2.52,2.46-3.64Z"/><polygon class="cls-21_marketing-3-56 targetColor" points="286.7 272.09 288.04 279.75 287.99 282.86 292.07 281.96 291.57 278.89 289.85 271.29 286.7 272.09" style="fill: rgb(136, 117, 255);"/><polygon class="cls-7_marketing-3-56" points="286.7 272.09 288.04 279.75 287.99 282.86 292.07 281.96 291.57 278.89 289.85 271.29 286.7 272.09"/><path class="cls-20_marketing-3-56" d="M288.33,280.03c-1.09-1.58-1.27-3.59-1.41-5.51-.17-.83-.01-1.7.43-2.42.42-.43.96-.73,1.55-.86.82-.34,1.73-.41,2.6-.21.9.35,1.58,1.09,1.87,2.01.27.91.41,1.85.41,2.8l.12,2.97.17,3.87c.07.5-.01,1.02-.24,1.47-1.75,2.71-4.76-3.06-5.49-4.12Z"/></g></svg>